HIERARCHY
ROOT mixamorig:Hips
{
	OFFSET 0.000000 103.991501 0.000000
	CHANNELS 6 Xposition Yposition Zposition Xrotation Yrotation Zrotation
	JOINT mixamorig:Spine
	{
		OFFSET 0.000000 10.181602 0.131500
		CHANNELS 6 Xposition Yposition Zposition Xrotation Yrotation Zrotation
		JOINT mixamorig:Spine1
		{
			OFFSET 0.000000 10.083504 -1.000800
			CHANNELS 6 Xposition Yposition Zposition Xrotation Yrotation Zrotation
			JOINT mixamorig:Spine2
			{
				OFFSET 0.000000 9.100006 -1.373400
				CHANNELS 6 Xposition Yposition Zposition Xrotation Yrotation Zrotation
				JOINT mixamorig:Neck
				{
					OFFSET 0.000000 16.671707 -2.516200
					CHANNELS 6 Xposition Yposition Zposition Xrotation Yrotation Zrotation
					JOINT mixamorig:Head
					{
						OFFSET 0.000000 9.617905 1.685000
						CHANNELS 6 Xposition Yposition Zposition Xrotation Yrotation Zrotation
						JOINT mixamorig:HeadTop_End
						{
							OFFSET 0.000000 17.815201 2.585000
							CHANNELS 6 Xposition Yposition Zposition Xrotation Yrotation Zrotation
							End Site
							{
								OFFSET 0.000000 13.794495 0.000000
							}
						}
						JOINT mixamorig:LeftEye
						{
							OFFSET 3.067600 6.409500 9.283600
							CHANNELS 6 Xposition Yposition Zposition Xrotation Yrotation Zrotation
							End Site
							{
								OFFSET 0.000000 13.794495 0.000000
							}
						}
						JOINT mixamorig:RightEye
						{
							OFFSET -3.067600 6.409500 9.283500
							CHANNELS 6 Xposition Yposition Zposition Xrotation Yrotation Zrotation
							End Site
							{
								OFFSET 0.000000 13.794495 0.000000
							}
						}
					}
				}
				JOINT mixamorig:LeftShoulder
				{
					OFFSET 4.570400 10.945999 -2.628000
					CHANNELS 6 Xposition Yposition Zposition Xrotation Yrotation Zrotation
					JOINT mixamorig:LeftArm
					{
						OFFSET 10.592400 -0.524597 -2.232100
						CHANNELS 6 Xposition Yposition Zposition Xrotation Yrotation Zrotation
						JOINT mixamorig:LeftForeArm
						{
							OFFSET 27.841499 0.000000 0.000000
							CHANNELS 6 Xposition Yposition Zposition Xrotation Yrotation Zrotation
							JOINT mixamorig:LeftHand
							{
								OFFSET 28.328800 0.000000 0.000000
								CHANNELS 6 Xposition Yposition Zposition Xrotation Yrotation Zrotation
								JOINT mixamorig:LeftHandThumb1
								{
									OFFSET 2.466103 -1.576218 2.681689
									CHANNELS 6 Xposition Yposition Zposition Xrotation Yrotation Zrotation
									JOINT mixamorig:LeftHandThumb2
									{
										OFFSET 3.229782 -1.864716 1.864716
										CHANNELS 6 Xposition Yposition Zposition Xrotation Yrotation Zrotation
										JOINT mixamorig:LeftHandThumb3
										{
											OFFSET 2.652611 -1.531494 1.531488
											CHANNELS 6 Xposition Yposition Zposition Xrotation Yrotation Zrotation
											JOINT mixamorig:LeftHandThumb4
											{
												OFFSET 1.954605 -1.128494 1.128493
												CHANNELS 6 Xposition Yposition Zposition Xrotation Yrotation Zrotation
												End Site
												{
													OFFSET -0.000404 2.523392 0.000683
												}
											}
										}
									}
								}
								JOINT mixamorig:LeftHandIndex1
								{
									OFFSET 9.109299 -0.518112 2.259867
									CHANNELS 6 Xposition Yposition Zposition Xrotation Yrotation Zrotation
									JOINT mixamorig:LeftHandIndex2
									{
										OFFSET 3.676399 0.000000 0.000000
										CHANNELS 6 Xposition Yposition Zposition Xrotation Yrotation Zrotation
										JOINT mixamorig:LeftHandIndex3
										{
											OFFSET 2.883102 0.000000 0.000000
											CHANNELS 6 Xposition Yposition Zposition Xrotation Yrotation Zrotation
											JOINT mixamorig:LeftHandIndex4
											{
												OFFSET 2.392700 0.000000 0.000000
												CHANNELS 6 Xposition Yposition Zposition Xrotation Yrotation Zrotation
												End Site
												{
													OFFSET 0.000000 2.392700 0.001080
												}
											}
										}
									}
								}
								JOINT mixamorig:LeftHandMiddle1
								{
									OFFSET 9.533401 0.000000 0.000000
									CHANNELS 6 Xposition Yposition Zposition Xrotation Yrotation Zrotation
									JOINT mixamorig:LeftHandMiddle2
									{
										OFFSET 3.698196 0.000000 0.000000
										CHANNELS 6 Xposition Yposition Zposition Xrotation Yrotation Zrotation
										JOINT mixamorig:LeftHandMiddle3
										{
											OFFSET 2.950897 0.000000 0.000000
											CHANNELS 6 Xposition Yposition Zposition Xrotation Yrotation Zrotation
											JOINT mixamorig:LeftHandMiddle4
											{
												OFFSET 2.833900 0.000000 0.000000
												CHANNELS 6 Xposition Yposition Zposition Xrotation Yrotation Zrotation
												End Site
												{
													OFFSET 0.000000 2.833893 0.001278
												}
											}
										}
									}
								}
								JOINT mixamorig:LeftHandRing1
								{
									OFFSET 9.104500 -0.043060 -1.865119
									CHANNELS 6 Xposition Yposition Zposition Xrotation Yrotation Zrotation
									JOINT mixamorig:LeftHandRing2
									{
										OFFSET 3.153999 0.000000 0.000000
										CHANNELS 6 Xposition Yposition Zposition Xrotation Yrotation Zrotation
										JOINT mixamorig:LeftHandRing3
										{
											OFFSET 2.937698 0.000000 0.000000
											CHANNELS 6 Xposition Yposition Zposition Xrotation Yrotation Zrotation
											JOINT mixamorig:LeftHandRing4
											{
												OFFSET 2.647499 0.000000 0.000000
												CHANNELS 6 Xposition Yposition Zposition Xrotation Yrotation Zrotation
												End Site
												{
													OFFSET 0.000000 2.647507 0.001195
												}
											}
										}
									}
								}
								JOINT mixamorig:LeftHandPinky1
								{
									OFFSET 8.077797 -0.486984 -3.806321
									CHANNELS 6 Xposition Yposition Zposition Xrotation Yrotation Zrotation
									JOINT mixamorig:LeftHandPinky2
									{
										OFFSET 3.599998 0.000000 0.000000
										CHANNELS 6 Xposition Yposition Zposition Xrotation Yrotation Zrotation
										JOINT mixamorig:LeftHandPinky3
										{
											OFFSET 2.114197 0.000000 0.000000
											CHANNELS 6 Xposition Yposition Zposition Xrotation Yrotation Zrotation
											JOINT mixamorig:LeftHandPinky4
											{
												OFFSET 1.975700 0.000000 0.000000
												CHANNELS 6 Xposition Yposition Zposition Xrotation Yrotation Zrotation
												End Site
												{
													OFFSET 0.000000 1.975693 0.000892
												}
											}
										}
									}
								}
							}
						}
					}
				}
				JOINT mixamorig:RightShoulder
				{
					OFFSET -4.570000 10.946198 -2.628000
					CHANNELS 6 Xposition Yposition Zposition Xrotation Yrotation Zrotation
					JOINT mixamorig:RightArm
					{
						OFFSET -10.592800 -0.524796 -2.232100
						CHANNELS 6 Xposition Yposition Zposition Xrotation Yrotation Zrotation
						JOINT mixamorig:RightForeArm
						{
							OFFSET -27.841499 0.000000 0.000000
							CHANNELS 6 Xposition Yposition Zposition Xrotation Yrotation Zrotation
							JOINT mixamorig:RightHand
							{
								OFFSET -28.328800 0.000000 0.000000
								CHANNELS 6 Xposition Yposition Zposition Xrotation Yrotation Zrotation
								JOINT mixamorig:RightHandPinky1
								{
									OFFSET -8.076698 -0.486725 -3.806227
									CHANNELS 6 Xposition Yposition Zposition Xrotation Yrotation Zrotation
									JOINT mixamorig:RightHandPinky2
									{
										OFFSET -3.599998 0.000000 0.000000
										CHANNELS 6 Xposition Yposition Zposition Xrotation Yrotation Zrotation
										JOINT mixamorig:RightHandPinky3
										{
											OFFSET -2.114197 0.000000 0.000000
											CHANNELS 6 Xposition Yposition Zposition Xrotation Yrotation Zrotation
											JOINT mixamorig:RightHandPinky4
											{
												OFFSET -1.975700 0.000000 0.000000
												CHANNELS 6 Xposition Yposition Zposition Xrotation Yrotation Zrotation
												End Site
												{
													OFFSET 0.000000 1.975693 0.000919
												}
											}
										}
									}
								}
								JOINT mixamorig:RightHandRing1
								{
									OFFSET -9.103600 -0.043030 -1.865120
									CHANNELS 6 Xposition Yposition Zposition Xrotation Yrotation Zrotation
									JOINT mixamorig:RightHandRing2
									{
										OFFSET -3.153999 0.000000 0.000000
										CHANNELS 6 Xposition Yposition Zposition Xrotation Yrotation Zrotation
										JOINT mixamorig:RightHandRing3
										{
											OFFSET -2.937698 0.000000 0.000000
											CHANNELS 6 Xposition Yposition Zposition Xrotation Yrotation Zrotation
											JOINT mixamorig:RightHandRing4
											{
												OFFSET -2.647499 0.000000 0.000000
												CHANNELS 6 Xposition Yposition Zposition Xrotation Yrotation Zrotation
												End Site
												{
													OFFSET 0.000000 2.647507 0.001231
												}
											}
										}
									}
								}
								JOINT mixamorig:RightHandMiddle1
								{
									OFFSET -9.532501 0.000000 0.000000
									CHANNELS 6 Xposition Yposition Zposition Xrotation Yrotation Zrotation
									JOINT mixamorig:RightHandMiddle2
									{
										OFFSET -3.698196 0.000000 0.000000
										CHANNELS 6 Xposition Yposition Zposition Xrotation Yrotation Zrotation
										JOINT mixamorig:RightHandMiddle3
										{
											OFFSET -2.950897 0.000000 0.000000
											CHANNELS 6 Xposition Yposition Zposition Xrotation Yrotation Zrotation
											JOINT mixamorig:RightHandMiddle4
											{
												OFFSET -2.833900 0.000000 0.000000
												CHANNELS 6 Xposition Yposition Zposition Xrotation Yrotation Zrotation
												End Site
												{
													OFFSET 0.000000 2.833893 0.001318
												}
											}
										}
									}
								}
								JOINT mixamorig:RightHandIndex1
								{
									OFFSET -9.108299 -0.517853 2.259859
									CHANNELS 6 Xposition Yposition Zposition Xrotation Yrotation Zrotation
									JOINT mixamorig:RightHandIndex2
									{
										OFFSET -3.676399 0.000000 0.000000
										CHANNELS 6 Xposition Yposition Zposition Xrotation Yrotation Zrotation
										JOINT mixamorig:RightHandIndex3
										{
											OFFSET -2.883102 0.000000 0.000000
											CHANNELS 6 Xposition Yposition Zposition Xrotation Yrotation Zrotation
											JOINT mixamorig:RightHandIndex4
											{
												OFFSET -2.392700 0.000000 0.000000
												CHANNELS 6 Xposition Yposition Zposition Xrotation Yrotation Zrotation
												End Site
												{
													OFFSET 0.000000 2.392700 0.001113
												}
											}
										}
									}
								}
								JOINT mixamorig:RightHandThumb1
								{
									OFFSET -2.464798 -1.573944 2.681868
									CHANNELS 6 Xposition Yposition Zposition Xrotation Yrotation Zrotation
									JOINT mixamorig:RightHandThumb2
									{
										OFFSET -3.229782 -1.864716 1.864716
										CHANNELS 6 Xposition Yposition Zposition Xrotation Yrotation Zrotation
										JOINT mixamorig:RightHandThumb3
										{
											OFFSET -2.652542 -1.531448 1.531448
											CHANNELS 6 Xposition Yposition Zposition Xrotation Yrotation Zrotation
											JOINT mixamorig:RightHandThumb4
											{
												OFFSET -1.954605 -1.128494 1.128493
												CHANNELS 6 Xposition Yposition Zposition Xrotation Yrotation Zrotation
												End Site
												{
													OFFSET 0.000412 2.523392 0.000704
												}
											}
										}
									}
								}
							}
						}
					}
				}
			}
		}
	}
	JOINT mixamorig:LeftUpLeg
	{
		OFFSET 8.207800 -6.751701 -1.599600
		CHANNELS 6 Xposition Yposition Zposition Xrotation Yrotation Zrotation
		JOINT mixamorig:LeftLeg
		{
			OFFSET 0.000000 -44.370499 0.284600
			CHANNELS 6 Xposition Yposition Zposition Xrotation Yrotation Zrotation
			JOINT mixamorig:LeftFoot
			{
				OFFSET 0.000000 -44.427898 -2.982200
				CHANNELS 6 Xposition Yposition Zposition Xrotation Yrotation Zrotation
				JOINT mixamorig:LeftToeBase
				{
					OFFSET 0.000000 -8.728700 10.710600
					CHANNELS 6 Xposition Yposition Zposition Xrotation Yrotation Zrotation
					JOINT mixamorig:LeftToe_End
					{
						OFFSET 0.000000 -0.000700 9.278099
						CHANNELS 6 Xposition Yposition Zposition Xrotation Yrotation Zrotation
						End Site
						{
							OFFSET 0.000000 9.278100 0.000000
						}
					}
				}
			}
		}
	}
	JOINT mixamorig:RightUpLeg
	{
		OFFSET -8.207800 -6.751701 -1.599600
		CHANNELS 6 Xposition Yposition Zposition Xrotation Yrotation Zrotation
		JOINT mixamorig:RightLeg
		{
			OFFSET 0.000000 -44.370499 0.286200
			CHANNELS 6 Xposition Yposition Zposition Xrotation Yrotation Zrotation
			JOINT mixamorig:RightFoot
			{
				OFFSET 0.000000 -44.427700 -2.983800
				CHANNELS 6 Xposition Yposition Zposition Xrotation Yrotation Zrotation
				JOINT mixamorig:RightToeBase
				{
					OFFSET 0.000000 -8.728700 10.710600
					CHANNELS 6 Xposition Yposition Zposition Xrotation Yrotation Zrotation
					JOINT mixamorig:RightToe_End
					{
						OFFSET 0.000000 -0.000700 9.278100
						CHANNELS 6 Xposition Yposition Zposition Xrotation Yrotation Zrotation
						End Site
						{
							OFFSET 0.000000 9.278100 0.000000
						}
					}
				}
			}
		}
	}
}
MOTION
Frames: 3
Frame Time: 0.016667
2.225801 133.648865 -13.766701 33.616453 -1.232987 -3.025929 0.000000 10.181609 0.131499 11.475296 1.929948 -0.248794 -0.000000 10.083510 -1.000807 6.603152 0.422143 0.518781 -0.000001 9.100011 -1.373404 6.602539 0.379716 0.540135 0.000000 16.671715 -2.516177 -10.536965 -1.008117 -0.480356 0.000000 9.617896 1.684993 -17.596271 -7.135800 -0.964082 -0.000001 17.815216 2.584996 -0.000000 -0.000000 -0.000000 3.067602 6.409485 9.283602 -0.000000 -0.000000 -0.000000 -3.067600 6.409500 9.283499 -0.000000 -0.000000 -0.000000 4.570400 10.946024 -2.627990 0.582546 -3.358047 -2.555255 10.592390 -0.524596 -2.232099 12.634506 -11.790840 -33.357063 27.841497 -0.000002 0.000004 -0.000019 -46.917082 -0.000016 28.328808 0.000003 -0.000004 -24.223462 -46.366083 47.494366 2.466105 -1.576223 2.681682 13.926886 -1.365935 8.867349 3.229788 -1.864709 1.864724 9.589588 8.941723 -5.052040 2.652608 -1.531470 1.531488 12.482548 13.277723 3.682260 1.954609 -1.128481 1.128494 0.000002 0.000000 0.000002 9.109297 -0.518092 2.259859 -0.458395 -8.365895 -40.911563 3.676383 0.000004 0.000006 3.693726 6.165158 -68.679909 2.883093 -0.000007 -0.000006 0.152891 1.419171 -16.225400 2.392702 -0.000000 -0.000004 0.000002 0.000001 0.000002 9.533399 0.000014 -0.000008 3.132249 10.728207 -46.204450 3.698196 -0.000004 -0.000004 3.680217 6.255950 -69.876284 2.950894 -0.000008 -0.000006 0.310203 1.962946 -17.213588 2.833906 -0.000014 0.000002 -0.000000 0.000002 0.000001 9.104494 -0.043044 -1.865124 8.494893 14.931364 -52.887470 3.154001 -0.000004 0.000004 3.957476 5.228255 -66.722226 2.937700 0.000012 0.000005 0.672473 2.092379 -22.240940 2.647499 -0.000013 -0.000001 0.000000 -0.000000 0.000000 8.077794 -0.486964 -3.806327 7.091864 29.406980 -52.412966 3.599968 0.000010 0.000006 2.956197 5.353771 -65.972702 2.114193 -0.000009 0.000001 0.433150 2.730704 -19.194358 1.975695 0.000030 0.000002 -0.000000 -0.000001 -0.000001 -4.570000 10.946208 -2.627976 0.978557 8.967419 1.626969 -10.592805 -0.524789 -2.232103 25.120246 3.287208 8.775614 -27.841494 0.000002 -0.000002 0.000024 67.620881 -0.000025 -28.328772 0.000014 0.000001 2.239574 32.165605 -46.389234 -8.076714 -0.486723 -3.806232 8.089955 -24.040726 61.979049 -3.599992 -0.000011 0.000004 2.400735 -5.005818 59.434674 -2.114195 -0.000005 0.000007 -0.729504 -0.682591 25.961622 -1.975708 -0.000015 -0.000004 -0.000000 0.000001 -0.000000 -9.103605 -0.043027 -1.865116 6.465662 -12.858923 56.298295 -3.153986 -0.000004 -0.000004 3.365929 -5.003972 60.365068 -2.937685 -0.000015 -0.000001 -0.157247 0.027507 17.891132 -2.647494 0.000031 0.000000 0.000000 -0.000000 0.000001 -9.532509 0.000002 0.000003 0.310155 -8.223825 50.224075 -3.698196 0.000005 -0.000002 2.769720 -5.807783 59.666470 -2.950888 -0.000024 -0.000003 0.374172 -2.160733 20.875555 -2.833898 -0.000013 -0.000003 0.000000 -0.000000 -0.000001 -9.108315 -0.517854 2.259861 1.002868 7.410274 42.680233 -3.676391 -0.000005 0.000001 2.310032 -5.395112 52.880622 -2.883121 0.000004 0.000004 -0.195276 -0.144745 13.158610 -2.392695 0.000001 0.000009 -0.000002 -0.000000 0.000001 -2.464819 -1.573952 2.681873 15.143079 0.480056 -4.481286 -3.229783 -1.864722 1.864715 8.674419 -11.609407 1.140336 -2.652544 -1.531476 1.531446 8.131151 -10.817329 9.127309 -1.954603 -1.128481 1.128494 0.000001 -0.000002 -0.000001 8.207801 -6.751716 -1.599592 -103.640382 -10.407891 3.394614 0.000002 -44.370506 0.284605 83.679899 10.370407 -0.005672 -0.000000 -44.427906 -2.982198 -4.362255 7.737027 -18.850945 -0.000000 -8.728699 10.710602 1.834970 0.000005 -0.000008 -0.000001 -0.000699 9.278097 -0.000000 -0.000000 -0.000000 -8.207799 -6.751711 -1.599588 -121.861831 -2.628783 -0.071074 0.000000 -44.370502 0.286182 103.908959 -8.703270 -0.323615 0.000002 -44.427704 -2.983801 -13.201318 -5.898043 -14.546442 -0.000000 -8.728704 10.710597 -0.611997 -0.000001 -0.000011 -0.000000 -0.000693 9.278102 0.000000 -0.000001 0.000001 
2.256571 130.517181 -13.125443 34.286887 -0.726761 -3.329861 -0.000000 10.181606 0.131500 9.784087 1.869064 -0.403681 -0.000001 10.083487 -1.000813 5.628884 0.287921 0.417292 -0.000000 9.100010 -1.373392 5.627789 0.272191 0.427674 -0.000000 16.671719 -2.516199 -10.192766 -1.096698 -0.504073 0.000000 9.617894 1.685005 -15.128422 -8.000545 -0.303456 0.000001 17.815201 2.584996 -0.000002 0.000000 -0.000000 3.067603 6.409501 9.283595 -0.000002 0.000000 -0.000000 -3.067599 6.409501 9.283496 -0.000002 0.000000 -0.000000 4.570401 10.946018 -2.627998 0.555476 -2.937801 -2.364453 10.592405 -0.524586 -2.232098 13.962796 -7.647977 -33.576691 27.841497 0.000004 0.000010 0.000013 -56.060284 0.000025 28.328785 -0.000001 -0.000005 -17.685096 -44.007629 50.846069 2.466112 -1.576222 2.681688 13.926896 -1.365941 8.867353 3.229783 -1.864737 1.864714 9.589590 8.941731 -5.052039 2.652615 -1.531469 1.531488 12.482551 13.277702 3.682253 1.954605 -1.128495 1.128494 -0.000001 -0.000002 -0.000000 9.109312 -0.518087 2.259868 -0.458377 -8.365896 -40.911546 3.676400 0.000003 -0.000004 3.693714 6.165167 -68.679915 2.883107 0.000003 -0.000001 0.152898 1.419189 -16.225405 2.392687 -0.000000 -0.000012 -0.000000 0.000000 -0.000001 9.533413 -0.000004 0.000003 3.132259 10.728212 -46.204437 3.698194 -0.000002 -0.000004 3.680227 6.255940 -69.876298 2.950902 -0.000012 -0.000004 0.310203 1.962939 -17.213588 2.833913 -0.000000 0.000007 0.000001 -0.000000 0.000001 9.104495 -0.043049 -1.865117 8.494888 14.931357 -52.887490 3.153961 0.000005 -0.000007 3.957485 5.228271 -66.722199 2.937704 0.000018 -0.000005 0.672467 2.092375 -22.240950 2.647507 -0.000021 -0.000001 -0.000003 -0.000003 0.000000 8.077784 -0.486975 -3.806312 7.091869 29.406973 -52.412949 3.599976 0.000009 0.000002 2.956191 5.353771 -65.972688 2.114180 0.000005 0.000000 0.433153 2.730712 -19.194360 1.975698 0.000000 0.000007 0.000000 0.000001 0.000001 -4.570001 10.946195 -2.627988 0.885145 7.717324 1.751618 -10.592796 -0.524794 -2.232097 25.954210 1.286590 11.314286 -27.841499 0.000004 0.000003 -0.000039 71.485095 0.000028 -28.328808 0.000001 0.000006 3.178715 31.572010 -45.385880 -8.076679 -0.486715 -3.806233 8.089959 -24.040729 61.979035 -3.599990 -0.000017 0.000002 2.400742 -5.005807 59.434687 -2.114198 -0.000019 -0.000006 -0.729496 -0.682612 25.961626 -1.975707 -0.000000 -0.000001 -0.000000 -0.000001 -0.000000 -9.103579 -0.043028 -1.865127 6.465653 -12.858918 56.298295 -3.153992 0.000005 -0.000005 3.365935 -5.003977 60.365055 -2.937700 -0.000016 -0.000002 -0.157253 0.027524 17.891138 -2.647485 0.000000 -0.000000 -0.000000 -0.000000 0.000000 -9.532497 0.000004 -0.000000 0.310143 -8.223826 50.224071 -3.698211 -0.000000 -0.000005 2.769733 -5.807790 59.666470 -2.950879 -0.000013 0.000005 0.374179 -2.160745 20.875553 -2.833894 -0.000060 -0.000000 0.000001 0.000000 0.000000 -9.108294 -0.517849 2.259861 1.002844 7.410297 42.680261 -3.676401 -0.000011 0.000001 2.310055 -5.395124 52.880619 -2.883106 0.000003 0.000004 -0.195296 -0.144738 13.158612 -2.392685 0.000001 0.000006 -0.000000 -0.000000 0.000000 -2.464797 -1.573941 2.681861 15.143086 0.480071 -4.481300 -3.229769 -1.864708 1.864717 8.674422 -11.609402 1.140347 -2.652529 -1.531443 1.531446 8.131149 -10.817316 9.127300 -1.954610 -1.128508 1.128482 0.000000 0.000000 -0.000001 8.207800 -6.751700 -1.599599 -99.659174 -11.458027 3.101855 -0.000002 -44.370502 0.284588 79.345652 10.322614 0.071137 0.000003 -44.427895 -2.982199 -3.389332 8.458341 -18.128939 -0.000000 -8.728692 10.710599 1.904532 -0.000009 0.000002 -0.000002 -0.000695 9.278095 -0.000000 -0.000000 0.000001 -8.207801 -6.751689 -1.599600 -118.524655 -3.233628 0.211982 0.000000 -44.370499 0.286190 103.364784 -8.711572 -0.599831 0.000002 -44.427708 -2.983800 -13.790730 -7.047506 -14.606542 -0.000002 -8.728698 10.710603 -0.466592 -0.000007 -0.000007 0.000002 -0.000715 9.278099 -0.000000 0.000000 -0.000001 
2.335035 127.152451 -12.238762 34.727052 -0.530159 -3.637584 0.000001 10.181599 0.131503 8.179169 2.127921 -0.559000 0.000000 10.083501 -1.000824 4.647299 0.198891 0.258379 -0.000000 9.100018 -1.373404 4.645908 0.212220 0.260558 -0.000001 16.671705 -2.516196 -9.837277 -1.195103 -0.543268 0.000000 9.617911 1.684994 -12.587302 -8.920994 0.368854 -0.000002 17.815216 2.585001 0.000000 0.000000 0.000000 3.067600 6.409500 9.283606 0.000000 0.000000 0.000000 -3.067602 6.409515 9.283494 0.000000 0.000000 0.000000 4.570400 10.946013 -2.627993 0.520946 -2.403451 -2.323482 10.592395 -0.524589 -2.232090 15.704125 -3.309620 -34.263408 27.841494 -0.000005 0.000009 0.000011 -65.450295 0.000021 28.328779 -0.000010 0.000011 -12.016645 -41.184763 52.491404 2.466095 -1.576216 2.681680 13.926897 -1.365930 8.867359 3.229780 -1.864719 1.864715 9.589586 8.941716 -5.052043 2.652611 -1.531483 1.531489 12.482553 13.277702 3.682255 1.954606 -1.128465 1.128496 0.000000 0.000004 -0.000000 9.109292 -0.518108 2.259851 -0.458403 -8.365890 -40.911566 3.676393 0.000001 0.000005 3.693737 6.165162 -68.679902 2.883089 0.000004 0.000009 0.152903 1.419180 -16.225394 2.392686 -0.000019 -0.000008 -0.000001 -0.000000 0.000003 9.533394 0.000018 -0.000008 3.132251 10.728210 -46.204450 3.698184 -0.000009 -0.000001 3.680231 6.255943 -69.876278 2.950896 -0.000006 -0.000007 0.310192 1.962928 -17.213596 2.833902 0.000003 -0.000009 0.000003 -0.000004 -0.000001 9.104498 -0.043049 -1.865128 8.494886 14.931367 -52.887476 3.153998 0.000009 0.000003 3.957484 5.228275 -66.722199 2.937696 -0.000001 0.000000 0.672468 2.092377 -22.240942 2.647498 -0.000000 0.000004 -0.000001 -0.000003 0.000001 8.077776 -0.486958 -3.806332 7.091855 29.406973 -52.412949 3.599977 0.000013 0.000000 2.956194 5.353784 -65.972688 2.114191 0.000008 0.000003 0.433157 2.730713 -19.194353 1.975693 0.000030 -0.000001 -0.000002 0.000000 0.000000 -4.570001 10.946218 -2.627997 0.772678 6.163197 1.925442 -10.592801 -0.524795 -2.232093 27.757993 -0.855895 14.223095 -27.841497 -0.000002 -0.000008 0.000040 75.665416 -0.000035 -28.328793 0.000009 -0.000006 4.283447 31.027671 -44.224232 -8.076696 -0.486718 -3.806238 8.089938 -24.040710 61.979049 -3.599996 -0.000018 0.000004 2.400739 -5.005817 59.434667 -2.114192 0.000001 0.000003 -0.729492 -0.682607 25.961640 -1.975708 -0.000002 -0.000001 -0.000000 0.000000 0.000000 -9.103595 -0.043025 -1.865119 6.465671 -12.858915 56.298292 -3.154012 -0.000001 0.000004 3.365902 -5.003948 60.365062 -2.937697 -0.000001 -0.000001 -0.157252 0.027505 17.891134 -2.647483 0.000001 -0.000003 -0.000000 0.000000 -0.000000 -9.532486 0.000010 -0.000006 0.310157 -8.223820 50.224092 -3.698196 -0.000003 -0.000002 2.769711 -5.807784 59.666477 -2.950876 0.000006 -0.000002 0.374168 -2.160714 20.875553 -2.833904 -0.000030 0.000001 -0.000000 -0.000000 0.000001 -9.108305 -0.517847 2.259861 1.002863 7.410298 42.680244 -3.676404 -0.000007 0.000002 2.310013 -5.395099 52.880612 -2.883089 -0.000000 -0.000002 -0.195285 -0.144754 13.158617 -2.392698 -0.000011 0.000001 0.000000 -0.000000 -0.000001 -2.464787 -1.573946 2.681868 15.143072 0.480070 -4.481302 -3.229788 -1.864692 1.864712 8.674410 -11.609414 1.140345 -2.652531 -1.531474 1.531443 8.131157 -10.817316 9.127301 -1.954620 -1.128523 1.128487 -0.000001 0.000000 0.000003 8.207801 -6.751712 -1.599591 -94.603031 -12.217772 3.439209 -0.000002 -44.370506 0.284582 73.823847 10.285463 0.092844 0.000000 -44.427895 -2.982202 -0.988545 8.020999 -17.631264 -0.000004 -8.728697 10.710603 1.644529 -0.000001 0.000001 -0.000001 -0.000697 9.278096 0.000000 -0.000001 -0.000000 -8.207798 -6.751716 -1.599586 -114.201514 -3.960108 0.693370 0.000000 -44.370499 0.286198 101.721037 -8.790908 -0.821451 0.000003 -44.427704 -2.983804 -13.807196 -7.751755 -14.054133 0.000000 -8.728704 10.710600 -0.354080 0.000002 -0.000005 0.000002 -0.000695 9.278098 -0.000000 0.000000 -0.000001 
